<svg width="31" height="31" viewBox="0 0 31 31" fill="none" xmlns="http://www.w3.org/2000/svg">
<path d="M22.3982 16.3147C22.3863 14.2807 23.3079 12.7478 25.1689 11.6174C24.128 10.1262 22.5533 9.30609 20.4776 9.14803C18.5122 8.99295 16.3619 10.2933 15.5746 10.2933C14.7425 10.2933 12.8397 9.20171 11.3426 9.20171C8.25283 9.24943 4.96924 11.6652 4.96924 16.5801C4.96924 18.0325 5.23467 19.5327 5.76553 21.0775C6.47534 23.1115 9.03421 28.0951 11.7034 28.0145C13.0992 27.9817 14.0864 27.0244 15.9026 27.0244C17.6652 27.0244 18.5778 28.0145 20.1346 28.0145C22.8277 27.9758 25.142 23.4455 25.816 21.4056C22.2044 19.7027 22.3982 16.4191 22.3982 16.3147ZM19.2638 7.21843C20.7758 5.42304 20.6386 3.7887 20.5939 3.20117C19.2578 3.27871 17.7129 4.1108 16.8331 5.13375C15.8639 6.23127 15.2942 7.58825 15.4165 9.11821C16.86 9.22855 18.1782 8.48594 19.2638 7.21843Z" fill="white"/>
</svg>
