<svg width="130" height="48" viewBox="0 0 130 48" fill="none" xmlns="http://www.w3.org/2000/svg">
<rect y="0.000244141" width="129.793" height="47.2158" rx="6.1079" fill="black"/>
<path d="M28.3982 24.3147C28.3863 22.2807 29.3079 20.7478 31.1689 19.6174C30.128 18.1262 28.5533 17.3061 26.4776 17.148C24.5122 16.9929 22.3619 18.2933 21.5746 18.2933C20.7425 18.2933 18.8397 17.2017 17.3426 17.2017C14.2528 17.2494 10.9692 19.6652 10.9692 24.5801C10.9692 26.0325 11.2347 27.5327 11.7655 29.0775C12.4753 31.1115 15.0342 36.0951 17.7034 36.0145C19.0992 35.9817 20.0864 35.0244 21.9026 35.0244C23.6652 35.0244 24.5778 36.0145 26.1346 36.0145C28.8277 35.9758 31.142 31.4455 31.816 29.4056C28.2044 27.7027 28.3982 24.4191 28.3982 24.3147ZM25.2638 15.2184C26.7758 13.423 26.6386 11.7887 26.5939 11.2012C25.2578 11.2787 23.7129 12.1108 22.8331 13.1338C21.8639 14.2313 21.2942 15.5882 21.4165 17.1182C22.86 17.2286 24.1782 16.4859 25.2638 15.2184Z" fill="white"/>
<path d="M47.1453 18.1082H45.0891V11.445H47.2364C47.8828 11.445 48.4359 11.5784 48.8957 11.8452C49.3555 12.1098 49.708 12.4904 49.9531 12.9871C50.1982 13.4817 50.3207 14.0738 50.3207 14.7636C50.3207 15.4576 50.1971 16.0552 49.9498 16.5562C49.7026 17.0551 49.3425 17.439 48.8697 17.708C48.3968 17.9748 47.822 18.1082 47.1453 18.1082ZM45.896 17.3924H47.0933C47.6442 17.3924 48.1008 17.2861 48.463 17.0735C48.8252 16.861 49.0952 16.5584 49.2731 16.1658C49.451 15.7732 49.5399 15.3058 49.5399 14.7636C49.5399 14.2256 49.452 13.7626 49.2763 13.3743C49.1007 12.9839 48.8382 12.6846 48.489 12.4763C48.1398 12.266 47.7049 12.1608 47.1843 12.1608H45.896V17.3924ZM53.6003 18.2123C53.1491 18.2123 52.7533 18.1049 52.4127 17.8902C52.0744 17.6754 51.8097 17.375 51.6189 16.989C51.4302 16.6029 51.3358 16.1517 51.3358 15.6355C51.3358 15.1149 51.4302 14.6605 51.6189 14.2723C51.8097 13.884 52.0744 13.5825 52.4127 13.3678C52.7533 13.1531 53.1491 13.0457 53.6003 13.0457C54.0514 13.0457 54.4462 13.1531 54.7845 13.3678C55.1251 13.5825 55.3897 13.884 55.5784 14.2723C55.7693 14.6605 55.8647 15.1149 55.8647 15.6355C55.8647 16.1517 55.7693 16.6029 55.5784 16.989C55.3897 17.375 55.1251 17.6754 54.7845 17.8902C54.4462 18.1049 54.0514 18.2123 53.6003 18.2123ZM53.6003 17.5225C53.943 17.5225 54.2249 17.4347 54.4462 17.259C54.6674 17.0833 54.8312 16.8523 54.9374 16.566C55.0437 16.2797 55.0969 15.9695 55.0969 15.6355C55.0969 15.3015 55.0437 14.9902 54.9374 14.7017C54.8312 14.4133 54.6674 14.1801 54.4462 14.0022C54.2249 13.8244 53.943 13.7354 53.6003 13.7354C53.2575 13.7354 52.9756 13.8244 52.7543 14.0022C52.5331 14.1801 52.3693 14.4133 52.2631 14.7017C52.1568 14.9902 52.1036 15.3015 52.1036 15.6355C52.1036 15.9695 52.1568 16.2797 52.2631 16.566C52.3693 16.8523 52.5331 17.0833 52.7543 17.259C52.9756 17.4347 53.2575 17.5225 53.6003 17.5225ZM57.999 18.1082L56.4763 13.1108H57.2832L58.3634 16.9369H58.4154L59.4826 13.1108H60.3025L61.3566 16.9239H61.4087L62.4888 13.1108H63.2957L61.773 18.1082H61.0182L59.9251 14.269H59.847L58.7538 18.1082H57.999ZM65.0786 15.1019V18.1082H64.3108V13.1108H65.0526V13.8916H65.1176C65.2348 13.6378 65.4126 13.434 65.6512 13.28C65.8898 13.1238 66.1978 13.0457 66.5752 13.0457C66.9136 13.0457 67.2096 13.1151 67.4634 13.2539C67.7172 13.3906 67.9146 13.5988 68.0556 13.8786C68.1965 14.1562 68.267 14.5076 68.267 14.9327V18.1082H67.4992V14.9848C67.4992 14.5922 67.3973 14.2864 67.1934 14.0673C66.9895 13.8461 66.7097 13.7354 66.354 13.7354C66.1089 13.7354 65.8898 13.7886 65.6968 13.8949C65.5059 14.0012 65.3551 14.1562 65.2445 14.3601C65.1339 14.564 65.0786 14.8113 65.0786 15.1019ZM70.4379 11.445V18.1082H69.6701V11.445H70.4379ZM73.8744 18.2123C73.4233 18.2123 73.0274 18.1049 72.6869 17.8902C72.3485 17.6754 72.0839 17.375 71.8931 16.989C71.7044 16.6029 71.61 16.1517 71.61 15.6355C71.61 15.1149 71.7044 14.6605 71.8931 14.2723C72.0839 13.884 72.3485 13.5825 72.6869 13.3678C73.0274 13.1531 73.4233 13.0457 73.8744 13.0457C74.3256 13.0457 74.7203 13.1531 75.0587 13.3678C75.3992 13.5825 75.6639 13.884 75.8526 14.2723C76.0434 14.6605 76.1389 15.1149 76.1389 15.6355C76.1389 16.1517 76.0434 16.6029 75.8526 16.989C75.6639 17.375 75.3992 17.6754 75.0587 17.8902C74.7203 18.1049 74.3256 18.2123 73.8744 18.2123ZM73.8744 17.5225C74.2171 17.5225 74.4991 17.4347 74.7203 17.259C74.9416 17.0833 75.1053 16.8523 75.2116 16.566C75.3179 16.2797 75.371 15.9695 75.371 15.6355C75.371 15.3015 75.3179 14.9902 75.2116 14.7017C75.1053 14.4133 74.9416 14.1801 74.7203 14.0022C74.4991 13.8244 74.2171 13.7354 73.8744 13.7354C73.5317 13.7354 73.2498 13.8244 73.0285 14.0022C72.8073 14.1801 72.6435 14.4133 72.5373 14.7017C72.431 14.9902 72.3778 15.3015 72.3778 15.6355C72.3778 15.9695 72.431 16.2797 72.5373 16.566C72.6435 16.8523 72.8073 17.0833 73.0285 17.259C73.2498 17.4347 73.5317 17.5225 73.8744 17.5225ZM78.7815 18.2253C78.4649 18.2253 78.1775 18.1656 77.9194 18.0463C77.6612 17.9249 77.4563 17.7503 77.3044 17.5225C77.1526 17.2926 77.0767 17.015 77.0767 16.6896C77.0767 16.4033 77.1331 16.1712 77.2459 15.9934C77.3587 15.8134 77.5094 15.6724 77.6981 15.5704C77.8868 15.4685 78.095 15.3926 78.3228 15.3427C78.5527 15.2906 78.7837 15.2494 79.0158 15.219C79.3194 15.18 79.5656 15.1507 79.7543 15.1312C79.9452 15.1095 80.084 15.0737 80.1708 15.0238C80.2597 14.9739 80.3042 14.8872 80.3042 14.7636V14.7375C80.3042 14.4165 80.2163 14.1671 80.0406 13.9892C79.8671 13.8114 79.6036 13.7224 79.25 13.7224C78.8835 13.7224 78.5961 13.8027 78.3879 13.9632C78.1796 14.1237 78.0332 14.2951 77.9486 14.4772L77.2199 14.217C77.35 13.9133 77.5235 13.6769 77.7404 13.5077C77.9595 13.3364 78.1981 13.2171 78.4562 13.1498C78.7165 13.0804 78.9724 13.0457 79.224 13.0457C79.3845 13.0457 79.5689 13.0652 79.7771 13.1043C79.9875 13.1411 80.1903 13.2181 80.3855 13.3353C80.5829 13.4524 80.7466 13.6292 80.8768 13.8656C81.0069 14.102 81.072 14.4187 81.072 14.8156V18.1082H80.3042V17.4314H80.2651C80.2131 17.5399 80.1263 17.6559 80.0048 17.7796C79.8834 17.9032 79.7218 18.0084 79.5201 18.0951C79.3184 18.1819 79.0722 18.2253 78.7815 18.2253ZM78.8987 17.5355C79.2023 17.5355 79.4583 17.4759 79.6665 17.3566C79.8769 17.2373 80.0352 17.0833 80.1415 16.8946C80.2499 16.7059 80.3042 16.5074 80.3042 16.2992V15.5965C80.2716 15.6355 80.2001 15.6713 80.0894 15.7038C79.981 15.7342 79.8552 15.7613 79.712 15.7852C79.571 15.8068 79.4333 15.8264 79.2988 15.8437C79.1665 15.8589 79.0592 15.8719 78.9767 15.8828C78.7772 15.9088 78.5907 15.9511 78.4171 16.0096C78.2458 16.066 78.107 16.1517 78.0007 16.2667C77.8966 16.3795 77.8445 16.5335 77.8445 16.7287C77.8445 16.9955 77.9432 17.1972 78.1406 17.3338C78.3401 17.4683 78.5928 17.5355 78.8987 17.5355ZM84.3605 18.2123C83.944 18.2123 83.5764 18.1071 83.2575 17.8967C82.9387 17.6841 82.6893 17.3848 82.5092 16.9987C82.3292 16.6105 82.2392 16.1517 82.2392 15.6225C82.2392 15.0976 82.3292 14.6421 82.5092 14.256C82.6893 13.8699 82.9398 13.5717 83.2608 13.3613C83.5818 13.1509 83.9527 13.0457 84.3735 13.0457C84.6988 13.0457 84.9559 13.0999 85.1446 13.2084C85.3354 13.3147 85.4808 13.4361 85.5805 13.5728C85.6825 13.7073 85.7616 13.8179 85.818 13.9046H85.8831V11.445H86.6509V18.1082H85.9091V17.3403H85.818C85.7616 17.4314 85.6814 17.5464 85.5773 17.6852C85.4732 17.8218 85.3246 17.9444 85.1315 18.0528C84.9385 18.1591 84.6815 18.2123 84.3605 18.2123ZM84.4646 17.5225C84.7726 17.5225 85.0329 17.4423 85.2454 17.2818C85.458 17.1191 85.6196 16.8946 85.7302 16.6083C85.8408 16.3198 85.8961 15.9869 85.8961 15.6095C85.8961 15.2364 85.8419 14.91 85.7334 14.6302C85.625 14.3482 85.4645 14.1291 85.2519 13.973C85.0394 13.8146 84.7769 13.7354 84.4646 13.7354C84.1392 13.7354 83.8681 13.819 83.6512 13.986C83.4365 14.1508 83.2749 14.3753 83.1664 14.6594C83.0602 14.9414 83.007 15.2581 83.007 15.6095C83.007 15.9652 83.0612 16.2884 83.1697 16.579C83.2803 16.8675 83.443 17.0974 83.6577 17.2688C83.8746 17.4379 84.1436 17.5225 84.4646 17.5225ZM92.7708 18.2123C92.3196 18.2123 91.9238 18.1049 91.5832 17.8902C91.2449 17.6754 90.9803 17.375 90.7894 16.989C90.6007 16.6029 90.5063 16.1517 90.5063 15.6355C90.5063 15.1149 90.6007 14.6605 90.7894 14.2723C90.9803 13.884 91.2449 13.5825 91.5832 13.3678C91.9238 13.1531 92.3196 13.0457 92.7708 13.0457C93.2219 13.0457 93.6167 13.1531 93.955 13.3678C94.2956 13.5825 94.5602 13.884 94.7489 14.2723C94.9398 14.6605 95.0352 15.1149 95.0352 15.6355C95.0352 16.1517 94.9398 16.6029 94.7489 16.989C94.5602 17.375 94.2956 17.6754 93.955 17.8902C93.6167 18.1049 93.2219 18.2123 92.7708 18.2123ZM92.7708 17.5225C93.1135 17.5225 93.3954 17.4347 93.6167 17.259C93.8379 17.0833 94.0017 16.8523 94.108 16.566C94.2142 16.2797 94.2674 15.9695 94.2674 15.6355C94.2674 15.3015 94.2142 14.9902 94.108 14.7017C94.0017 14.4133 93.8379 14.1801 93.6167 14.0022C93.3954 13.8244 93.1135 13.7354 92.7708 13.7354C92.4281 13.7354 92.1461 13.8244 91.9249 14.0022C91.7036 14.1801 91.5399 14.4133 91.4336 14.7017C91.3273 14.9902 91.2742 15.3015 91.2742 15.6355C91.2742 15.9695 91.3273 16.2797 91.4336 16.566C91.5399 16.8523 91.7036 17.0833 91.9249 17.259C92.1461 17.4347 92.4281 17.5225 92.7708 17.5225ZM96.9751 15.1019V18.1082H96.2073V13.1108H96.9491V13.8916H97.0141C97.1313 13.6378 97.3091 13.434 97.5477 13.28C97.7863 13.1238 98.0943 13.0457 98.4717 13.0457C98.8101 13.0457 99.1061 13.1151 99.3599 13.2539C99.6137 13.3906 99.8111 13.5988 99.9521 13.8786C100.093 14.1562 100.164 14.5076 100.164 14.9327V18.1082H99.3957V14.9848C99.3957 14.5922 99.2938 14.2864 99.0899 14.0673C98.886 13.8461 98.6062 13.7354 98.2505 13.7354C98.0054 13.7354 97.7863 13.7886 97.5933 13.8949C97.4024 14.0012 97.2517 14.1562 97.141 14.3601C97.0304 14.564 96.9751 14.8113 96.9751 15.1019ZM106.317 13.1108V13.7615H103.727V13.1108H106.317ZM104.482 11.9135H105.25V16.6766C105.25 16.8935 105.281 17.0562 105.344 17.1646C105.409 17.2709 105.491 17.3425 105.591 17.3794C105.693 17.4141 105.8 17.4314 105.913 17.4314C105.998 17.4314 106.067 17.4271 106.122 17.4184C106.176 17.4076 106.219 17.3989 106.252 17.3924L106.408 18.0821C106.356 18.1016 106.283 18.1212 106.19 18.1407C106.097 18.1624 105.978 18.1732 105.835 18.1732C105.618 18.1732 105.406 18.1266 105.198 18.0333C104.991 17.9401 104.82 17.798 104.683 17.6071C104.549 17.4162 104.482 17.1755 104.482 16.8848V11.9135ZM108.347 15.1019V18.1082H107.579V11.445H108.347V13.8916H108.412C108.529 13.6335 108.705 13.4285 108.939 13.2767C109.175 13.1227 109.49 13.0457 109.883 13.0457C110.223 13.0457 110.521 13.114 110.777 13.2507C111.033 13.3852 111.232 13.5923 111.373 13.8721C111.516 14.1497 111.587 14.5033 111.587 14.9327V18.1082H110.82V14.9848C110.82 14.5879 110.717 14.281 110.51 14.0641C110.307 13.845 110.024 13.7354 109.661 13.7354C109.41 13.7354 109.184 13.7886 108.985 13.8949C108.787 14.0012 108.631 14.1562 108.516 14.3601C108.403 14.564 108.347 14.8113 108.347 15.1019ZM115.087 18.2123C114.606 18.2123 114.19 18.106 113.841 17.8934C113.494 17.6787 113.226 17.3794 113.038 16.9955C112.851 16.6094 112.758 16.1604 112.758 15.6485C112.758 15.1366 112.851 14.6855 113.038 14.2951C113.226 13.9025 113.489 13.5966 113.825 13.3776C114.163 13.1563 114.558 13.0457 115.009 13.0457C115.27 13.0457 115.527 13.0891 115.78 13.1758C116.034 13.2626 116.265 13.4036 116.473 13.5988C116.682 13.7918 116.847 14.0478 116.971 14.3666C117.095 14.6855 117.157 15.0781 117.157 15.5444V15.8697H113.304V15.206H116.376C116.376 14.9241 116.319 14.6725 116.207 14.4512C116.096 14.23 115.938 14.0554 115.732 13.9274C115.528 13.7994 115.287 13.7354 115.009 13.7354C114.703 13.7354 114.439 13.8114 114.215 13.9632C113.994 14.1129 113.824 14.3081 113.705 14.5488C113.585 14.7896 113.526 15.0477 113.526 15.3232V15.7656C113.526 16.143 113.591 16.463 113.721 16.7254C113.853 16.9857 114.036 17.1842 114.271 17.3208C114.505 17.4553 114.777 17.5225 115.087 17.5225C115.289 17.5225 115.471 17.4943 115.634 17.4379C115.799 17.3794 115.941 17.2926 116.06 17.1777C116.179 17.0605 116.272 16.9152 116.337 16.7417L117.078 16.9499C117 17.2015 116.869 17.4228 116.685 17.6136C116.5 17.8023 116.273 17.9498 116.002 18.0561C115.73 18.1602 115.426 18.2123 115.087 18.2123ZM45.9025 37.1082H44.6336L48.3036 27.1134H49.5529L53.2228 37.1082H51.954L48.9673 28.6946H48.8892L45.9025 37.1082ZM46.371 33.204H51.4855V34.2776H46.371V33.204ZM54.6235 39.9192V29.6121H55.7362V30.8029H55.8728C55.9574 30.6727 56.0745 30.5068 56.2242 30.3051C56.3771 30.1001 56.5951 29.9179 56.8782 29.7585C57.1645 29.5958 57.5516 29.5145 58.0397 29.5145C58.6708 29.5145 59.2272 29.6723 59.7087 29.9879C60.1902 30.3035 60.566 30.7508 60.836 31.3299C61.1061 31.9091 61.2411 32.5923 61.2411 33.3796C61.2411 34.1735 61.1061 34.8616 60.836 35.444C60.566 36.0231 60.1918 36.4721 59.7136 36.7909C59.2353 37.1065 58.6838 37.2643 58.0592 37.2643C57.5777 37.2643 57.1921 37.1846 56.9026 37.0252C56.613 36.8625 56.3901 36.6787 56.234 36.4737C56.0778 36.2655 55.9574 36.0931 55.8728 35.9564H55.7752V39.9192H54.6235ZM55.7557 33.3601C55.7557 33.9262 55.8387 34.4256 56.0046 34.8584C56.1705 35.2878 56.4129 35.6246 56.7317 35.8686C57.0506 36.1093 57.441 36.2297 57.903 36.2297C58.3845 36.2297 58.7863 36.1028 59.1084 35.849C59.4338 35.592 59.6778 35.2472 59.8405 34.8144C60.0064 34.3785 60.0894 33.8937 60.0894 33.3601C60.0894 32.8331 60.008 32.358 59.8453 31.9351C59.6859 31.5089 59.4435 31.1721 59.1182 30.9249C58.7961 30.6744 58.391 30.5491 57.903 30.5491C57.4345 30.5491 57.0408 30.6679 56.722 30.9054C56.4031 31.1396 56.1624 31.4682 55.9997 31.8912C55.837 32.3109 55.7557 32.8005 55.7557 33.3601ZM62.998 39.9192V29.6121H64.1107V30.8029H64.2473C64.3319 30.6727 64.449 30.5068 64.5987 30.3051C64.7516 30.1001 64.9696 29.9179 65.2527 29.7585C65.539 29.5958 65.9261 29.5145 66.4142 29.5145C67.0453 29.5145 67.6017 29.6723 68.0832 29.9879C68.5647 30.3035 68.9405 30.7508 69.2105 31.3299C69.4806 31.9091 69.6156 32.5923 69.6156 33.3796C69.6156 34.1735 69.4806 34.8616 69.2105 35.444C68.9405 36.0231 68.5664 36.4721 68.0881 36.7909C67.6098 37.1065 67.0584 37.2643 66.4337 37.2643C65.9522 37.2643 65.5666 37.1846 65.2771 37.0252C64.9875 36.8625 64.7646 36.6787 64.6085 36.4737C64.4523 36.2655 64.3319 36.0931 64.2473 35.9564H64.1497V39.9192H62.998ZM64.1302 33.3601C64.1302 33.9262 64.2132 34.4256 64.3791 34.8584C64.545 35.2878 64.7874 35.6246 65.1063 35.8686C65.4251 36.1093 65.8155 36.2297 66.2775 36.2297C66.759 36.2297 67.1608 36.1028 67.4829 35.849C67.8083 35.592 68.0523 35.2472 68.215 34.8144C68.3809 34.3785 68.4639 33.8937 68.4639 33.3601C68.4639 32.8331 68.3825 32.358 68.2199 31.9351C68.0604 31.5089 67.818 31.1721 67.4927 30.9249C67.1706 30.6744 66.7655 30.5491 66.2775 30.5491C65.809 30.5491 65.4153 30.6679 65.0965 30.9054C64.7777 31.1396 64.5369 31.4682 64.3742 31.8912C64.2115 32.3109 64.1302 32.8005 64.1302 33.3601ZM76.9945 29.6121C76.936 29.1176 76.6985 28.7336 76.282 28.4604C75.8656 28.1871 75.3548 28.0504 74.7496 28.0504C74.3072 28.0504 73.92 28.122 73.5881 28.2651C73.2595 28.4083 73.0025 28.6051 72.817 28.8557C72.6349 29.1062 72.5438 29.3909 72.5438 29.7097C72.5438 29.9765 72.6072 30.2059 72.7341 30.3978C72.8642 30.5865 73.0302 30.7443 73.2319 30.8712C73.4336 30.9948 73.6451 31.0973 73.8663 31.1786C74.0875 31.2567 74.2909 31.3202 74.4763 31.369L75.4914 31.6423C75.7517 31.7106 76.0413 31.8049 76.3601 31.9253C76.6822 32.0457 76.9897 32.21 77.2825 32.4182C77.5785 32.6232 77.8226 32.8867 78.0145 33.2088C78.2065 33.5309 78.3024 33.9262 78.3024 34.3947C78.3024 34.9348 78.1609 35.4228 77.8779 35.8588C77.5981 36.2948 77.1881 36.6413 76.648 36.8983C76.1112 37.1553 75.4589 37.2838 74.6911 37.2838C73.9753 37.2838 73.3555 37.1683 72.8317 36.9373C72.3111 36.7063 71.9012 36.3843 71.6019 35.9711C71.3058 35.5579 71.1382 35.078 71.0992 34.5314H72.3485C72.3811 34.9088 72.508 35.2211 72.7292 35.4684C72.9537 35.7124 73.2367 35.8946 73.5784 36.015C73.9232 36.1321 74.2941 36.1907 74.6911 36.1907C75.1531 36.1907 75.5679 36.1158 75.9355 35.9662C76.3032 35.8133 76.5944 35.6018 76.8091 35.3317C77.0238 35.0584 77.1312 34.7396 77.1312 34.3752C77.1312 34.0434 77.0385 33.7733 76.853 33.5651C76.6676 33.3569 76.4236 33.1877 76.121 33.0575C75.8184 32.9274 75.4914 32.8135 75.14 32.7159L73.9102 32.3646C73.1294 32.1401 72.5112 31.8196 72.0557 31.4031C71.6002 30.9867 71.3725 30.4417 71.3725 29.7683C71.3725 29.2087 71.5238 28.7206 71.8264 28.3042C72.1322 27.8845 72.5421 27.5591 73.0562 27.3281C73.5735 27.0939 74.151 26.9768 74.7887 26.9768C75.4329 26.9768 76.0055 27.0923 76.5065 27.3233C77.0076 27.551 77.4045 27.8633 77.6973 28.2603C77.9934 28.6572 78.1495 29.1078 78.1658 29.6121H76.9945ZM83.3962 29.6121V30.5881H79.5115V29.6121H83.3962ZM80.6437 27.8162H81.7955V34.9608C81.7955 35.2862 81.8427 35.5302 81.937 35.6929C82.0346 35.8523 82.1583 35.9597 82.3079 36.015C82.4608 36.067 82.6219 36.0931 82.7911 36.0931C82.9179 36.0931 83.0221 36.0866 83.1034 36.0735C83.1847 36.0573 83.2498 36.0443 83.2986 36.0345L83.5329 37.0691C83.4548 37.0984 83.3458 37.1277 83.2059 37.157C83.066 37.1895 82.8887 37.2058 82.6739 37.2058C82.3486 37.2058 82.0297 37.1358 81.7174 36.9959C81.4083 36.856 81.1513 36.6429 80.9463 36.3566C80.7446 36.0703 80.6437 35.7091 80.6437 35.2732V27.8162ZM88.0935 37.2643C87.4167 37.2643 86.823 37.1033 86.3122 36.7812C85.8046 36.4591 85.4077 36.0085 85.1214 35.4293C84.8383 34.8502 84.6968 34.1735 84.6968 33.3992C84.6968 32.6183 84.8383 31.9367 85.1214 31.3543C85.4077 30.772 85.8046 30.3197 86.3122 29.9976C86.823 29.6755 87.4167 29.5145 88.0935 29.5145C88.7702 29.5145 89.3623 29.6755 89.8699 29.9976C90.3807 30.3197 90.7776 30.772 91.0606 31.3543C91.347 31.9367 91.4901 32.6183 91.4901 33.3992C91.4901 34.1735 91.347 34.8502 91.0606 35.4293C90.7776 36.0085 90.3807 36.4591 89.8699 36.7812C89.3623 37.1033 88.7702 37.2643 88.0935 37.2643ZM88.0935 36.2297C88.6075 36.2297 89.0305 36.0979 89.3623 35.8344C89.6942 35.5709 89.9398 35.2244 90.0992 34.7949C90.2587 34.3655 90.3384 33.9002 90.3384 33.3992C90.3384 32.8981 90.2587 32.4312 90.0992 31.9985C89.9398 31.5658 89.6942 31.2161 89.3623 30.9493C89.0305 30.6825 88.6075 30.5491 88.0935 30.5491C87.5794 30.5491 87.1564 30.6825 86.8246 30.9493C86.4927 31.2161 86.2471 31.5658 86.0877 31.9985C85.9282 32.4312 85.8485 32.8981 85.8485 33.3992C85.8485 33.9002 85.9282 34.3655 86.0877 34.7949C86.2471 35.2244 86.4927 35.5709 86.8246 35.8344C87.1564 36.0979 87.5794 36.2297 88.0935 36.2297ZM93.2482 37.1082V29.6121H94.3609V30.7443H94.439C94.5756 30.3734 94.8229 30.0725 95.1808 29.8415C95.5387 29.6105 95.9421 29.495 96.3911 29.495C96.4757 29.495 96.5814 29.4966 96.7083 29.4998C96.8352 29.5031 96.9312 29.508 96.9962 29.5145V30.6857C96.9572 30.676 96.8677 30.6613 96.7278 30.6418C96.5912 30.619 96.4464 30.6077 96.2935 30.6077C95.9291 30.6077 95.6037 30.6841 95.3174 30.837C95.0344 30.9867 94.8099 31.1949 94.644 31.4617C94.4813 31.7252 94.4 32.0262 94.4 32.3646V37.1082H93.2482ZM101.276 37.2643C100.554 37.2643 99.9309 37.1049 99.4071 36.7861C98.8865 36.464 98.4847 36.015 98.2017 35.4391C97.9219 34.86 97.782 34.1865 97.782 33.4187C97.782 32.6509 97.9219 31.9741 98.2017 31.3885C98.4847 30.7996 98.8784 30.3409 99.3827 30.0123C99.8902 29.6804 100.482 29.5145 101.159 29.5145C101.55 29.5145 101.935 29.5796 102.316 29.7097C102.696 29.8398 103.043 30.0513 103.355 30.3441C103.668 30.6337 103.916 31.0176 104.102 31.4959C104.287 31.9741 104.38 32.563 104.38 33.2625V33.7505H98.6019V32.755H103.209C103.209 32.332 103.124 31.9546 102.955 31.6228C102.789 31.2909 102.552 31.029 102.243 30.837C101.937 30.6451 101.576 30.5491 101.159 30.5491C100.7 30.5491 100.303 30.663 99.9683 30.8907C99.6365 31.1152 99.3811 31.408 99.2021 31.7692C99.0232 32.1303 98.9337 32.5175 98.9337 32.9307V33.5944C98.9337 34.1605 99.0313 34.6404 99.2265 35.034C99.425 35.4245 99.6999 35.7222 100.051 35.9271C100.403 36.1289 100.811 36.2297 101.276 36.2297C101.579 36.2297 101.852 36.1874 102.096 36.1028C102.343 36.015 102.556 35.8848 102.735 35.7124C102.914 35.5367 103.053 35.3187 103.15 35.0584L104.263 35.3708C104.146 35.7482 103.949 36.08 103.672 36.3664C103.396 36.6494 103.054 36.8706 102.648 37.0301C102.241 37.1862 101.784 37.2643 101.276 37.2643Z" fill="white"/>
</svg>
