<svg width="25" height="24" viewBox="0 0 25 24" fill="none" xmlns="http://www.w3.org/2000/svg">
<path d="M15.797 12.26C18.6302 12.26 20.927 9.96323 20.927 7.13C20.927 4.29678 18.6302 2 15.797 2C12.9638 2 10.667 4.29678 10.667 7.13C10.667 9.96323 12.9638 12.26 15.797 12.26Z" stroke="#5C7184" stroke-miterlimit="10"/>
<path d="M6.5668 19.44C8.26784 19.44 9.64682 18.0611 9.64682 16.36C9.64682 14.659 8.26784 13.28 6.5668 13.28C4.86577 13.28 3.48682 14.659 3.48682 16.36C3.48682 18.0611 4.86577 19.44 6.5668 19.44Z" stroke="#5C7184" stroke-miterlimit="10"/>
<path d="M16.8271 21.9999C18.2409 21.9999 19.3871 20.8537 19.3871 19.4399C19.3871 18.026 18.2409 16.8799 16.8271 16.8799C15.4132 16.8799 14.2671 18.026 14.2671 19.4399C14.2671 20.8537 15.4132 21.9999 16.8271 21.9999Z" stroke="#5C7184" stroke-miterlimit="10"/>
</svg>
