<svg width="32" height="31" viewBox="0 0 32 31" fill="none" xmlns="http://www.w3.org/2000/svg">
<g clip-path="url(#clip0_350_22684)">
<path d="M23.4122 20.2753C27.2776 18.2888 30.2077 16.7751 30.4603 16.6574C31.2683 16.2552 32.1026 15.1908 30.4603 14.364C29.93 14.104 27.0751 12.6374 23.4122 10.7461L18.3345 15.546L23.4122 20.2752V20.2753Z" fill="#FFD900"/>
<path d="M18.3347 15.5459L2.1665 30.7982C2.54601 30.8452 2.97446 30.751 3.47959 30.4911C4.54011 29.9477 15.7826 24.2011 23.4125 20.2763L18.3347 15.5459Z" fill="#F43249"/>
<path d="M18.3345 15.5462L23.4122 10.7698C23.4122 10.7698 4.61653 1.16873 3.47933 0.601963C3.05088 0.364446 2.57075 0.293893 2.14111 0.364446L18.3345 15.5462Z" fill="#00EE76"/>
<path d="M18.3361 15.546L2.14276 0.364258C1.48556 0.506478 0.930176 1.04995 0.930176 2.16141V29.0011C0.930176 30.0184 1.35993 30.7511 2.16788 30.8217L18.3361 15.546Z" fill="#00D3FF"/>
</g>
<defs>
<clipPath id="clip0_350_22684">
<rect width="30.5395" height="30.5395" fill="white" transform="translate(0.900879 0.338379)"/>
</clipPath>
</defs>
</svg>
