<svg width="342" height="65" viewBox="0 0 342 65" fill="none" xmlns="http://www.w3.org/2000/svg">
<path d="M108.136 16.185H94.013L97.609 11.893V52H88.648V11.893L92.36 16.185H78.15V9.225H108.136V16.185ZM110.132 52V21.202H119.151V31.816L117.295 30.656C117.508 29.206 117.894 27.872 118.455 26.654C119.016 25.436 119.741 24.3823 120.63 23.493C121.519 22.5843 122.573 21.8787 123.791 21.376C125.028 20.8733 126.44 20.622 128.025 20.622C129.262 20.622 130.229 20.7187 130.925 20.912C131.64 21.086 132.085 21.2213 132.259 21.318L130.78 29.38C130.606 29.2833 130.219 29.1287 129.62 28.916C129.021 28.7033 128.247 28.597 127.3 28.597C125.753 28.597 124.458 28.858 123.414 29.38C122.37 29.902 121.529 30.598 120.891 31.468C120.272 32.3187 119.828 33.266 119.557 34.31C119.286 35.354 119.151 36.4077 119.151 37.471V52H110.132ZM146.683 52.638C144.441 52.638 142.44 52.2803 140.68 51.565C138.94 50.8497 137.577 49.8153 136.591 48.462C135.605 47.1087 135.112 45.4653 135.112 43.532C135.112 41.3473 135.712 39.5687 136.91 38.196C138.109 36.8233 139.694 35.7793 141.666 35.064C143.658 34.3293 145.813 33.846 148.133 33.614C151.517 33.2853 153.846 32.9857 155.122 32.715C156.418 32.4443 157.065 31.9707 157.065 31.294C157.065 31.2747 157.065 31.2553 157.065 31.236C157.065 30.0953 156.514 29.1963 155.412 28.539C154.33 27.8817 152.812 27.553 150.859 27.553C148.791 27.553 147.205 27.93 146.103 28.684C145.021 29.4187 144.479 30.5497 144.479 32.077H135.634C135.634 29.6023 136.301 27.5143 137.635 25.813C138.989 24.1117 140.816 22.826 143.116 21.956C145.417 21.0667 148.017 20.622 150.917 20.622C153.624 20.622 156.128 21.0377 158.428 21.869C160.729 22.681 162.575 23.9087 163.967 25.552C165.379 27.1953 166.084 29.2833 166.084 31.816C166.084 32.222 166.084 32.628 166.084 33.034C166.084 33.4207 166.084 33.817 166.084 34.223V45.127C166.084 45.9197 166.104 46.6833 166.142 47.418C166.2 48.1333 166.316 48.7907 166.49 49.39C166.684 50.0667 166.925 50.6273 167.215 51.072C167.505 51.5167 167.747 51.826 167.94 52H159.095C158.96 51.8647 158.747 51.5843 158.457 51.159C158.187 50.7337 157.955 50.2407 157.761 49.68C157.529 49.0033 157.355 48.3267 157.239 47.65C157.143 46.954 157.094 46.142 157.094 45.214L158.95 46.49C158.409 47.766 157.529 48.868 156.311 49.796C155.113 50.7047 153.682 51.4103 152.019 51.913C150.376 52.3963 148.597 52.638 146.683 52.638ZM149.09 45.91C150.502 45.91 151.816 45.6587 153.034 45.156C154.272 44.634 155.277 43.822 156.05 42.72C156.824 41.618 157.21 40.1777 157.21 38.399V35.296L159.443 37.471C158.167 37.935 156.688 38.3217 155.006 38.631C153.344 38.921 151.681 39.153 150.018 39.327C148.046 39.5203 146.567 39.8587 145.581 40.342C144.615 40.806 144.131 41.5987 144.131 42.72C144.131 43.7833 144.547 44.5857 145.378 45.127C146.21 45.649 147.447 45.91 149.09 45.91ZM185.539 52.696C182.968 52.696 180.6 52.087 178.434 50.869C176.269 49.6317 174.529 47.8047 173.214 45.388C171.9 42.9713 171.242 39.994 171.242 36.456C171.242 33.0727 171.909 30.2017 173.243 27.843C174.597 25.4843 176.356 23.696 178.521 22.478C180.706 21.2407 183.045 20.622 185.539 20.622C187.975 20.622 190.199 21.2407 192.209 22.478C194.239 23.7153 195.863 25.407 197.081 27.553C198.299 29.6797 198.908 32.135 198.908 34.919C198.908 35.0157 198.908 35.1123 198.908 35.209C198.908 35.2863 198.908 35.3733 198.908 35.47L195.022 35.528C195.022 35.47 195.022 35.412 195.022 35.354C195.022 35.2767 195.022 35.209 195.022 35.151C195.022 33.701 194.674 32.454 193.978 31.41C193.282 30.366 192.383 29.5637 191.281 29.003C190.179 28.423 189.029 28.133 187.83 28.133C185.839 28.133 184.118 28.8 182.668 30.134C181.218 31.4487 180.493 33.556 180.493 36.456C180.493 39.356 181.218 41.4923 182.668 42.865C184.138 44.2183 185.858 44.895 187.83 44.895C189.068 44.895 190.237 44.605 191.339 44.025C192.441 43.4257 193.331 42.5847 194.007 41.502C194.684 40.4193 195.022 39.1433 195.022 37.674L198.908 37.877C198.908 40.6417 198.309 43.1453 197.11 45.388C195.931 47.6113 194.326 49.39 192.296 50.724C190.286 52.0387 188.033 52.696 185.539 52.696ZM195.022 52V6.673H204.041V52H195.022ZM210.548 52V21.202H219.451V52H210.548ZM214.985 16.185C213.593 16.185 212.375 15.8177 211.331 15.083C210.306 14.3483 209.794 13.314 209.794 11.98C209.794 10.6267 210.306 9.58267 211.331 8.848C212.375 8.11333 213.593 7.746 214.985 7.746C216.396 7.746 217.614 8.11333 218.639 8.848C219.683 9.58267 220.205 10.6267 220.205 11.98C220.205 13.3333 219.683 14.3773 218.639 15.112C217.614 15.8273 216.396 16.185 214.985 16.185ZM236.515 52.638C234.273 52.638 232.272 52.2803 230.512 51.565C228.772 50.8497 227.409 49.8153 226.423 48.462C225.437 47.1087 224.944 45.4653 224.944 43.532C224.944 41.3473 225.544 39.5687 226.742 38.196C227.941 36.8233 229.526 35.7793 231.498 35.064C233.49 34.3293 235.645 33.846 237.965 33.614C241.349 33.2853 243.678 32.9857 244.954 32.715C246.25 32.4443 246.897 31.9707 246.897 31.294C246.897 31.2747 246.897 31.2553 246.897 31.236C246.897 30.0953 246.346 29.1963 245.244 28.539C244.162 27.8817 242.644 27.553 240.691 27.553C238.623 27.553 237.037 27.93 235.935 28.684C234.853 29.4187 234.311 30.5497 234.311 32.077H225.466C225.466 29.6023 226.133 27.5143 227.467 25.813C228.821 24.1117 230.648 22.826 232.948 21.956C235.249 21.0667 237.849 20.622 240.749 20.622C243.456 20.622 245.96 21.0377 248.26 21.869C250.561 22.681 252.407 23.9087 253.799 25.552C255.211 27.1953 255.916 29.2833 255.916 31.816C255.916 32.222 255.916 32.628 255.916 33.034C255.916 33.4207 255.916 33.817 255.916 34.223V45.127C255.916 45.9197 255.936 46.6833 255.974 47.418C256.032 48.1333 256.148 48.7907 256.322 49.39C256.516 50.0667 256.757 50.6273 257.047 51.072C257.337 51.5167 257.579 51.826 257.772 52H248.927C248.792 51.8647 248.579 51.5843 248.289 51.159C248.019 50.7337 247.787 50.2407 247.593 49.68C247.361 49.0033 247.187 48.3267 247.071 47.65C246.975 46.954 246.926 46.142 246.926 45.214L248.782 46.49C248.241 47.766 247.361 48.868 246.143 49.796C244.945 50.7047 243.514 51.4103 241.851 51.913C240.208 52.3963 238.429 52.638 236.515 52.638ZM238.922 45.91C240.334 45.91 241.648 45.6587 242.866 45.156C244.104 44.634 245.109 43.822 245.882 42.72C246.656 41.618 247.042 40.1777 247.042 38.399V35.296L249.275 37.471C247.999 37.935 246.52 38.3217 244.838 38.631C243.176 38.921 241.513 39.153 239.85 39.327C237.878 39.5203 236.399 39.8587 235.413 40.342C234.447 40.806 233.963 41.5987 233.963 42.72C233.963 43.7833 234.379 44.5857 235.21 45.127C236.042 45.649 237.279 45.91 238.922 45.91ZM284.187 52V38.921C284.187 38.1863 284.187 37.5193 284.187 36.92C284.187 36.3207 284.187 35.7793 284.187 35.296C284.187 34.02 284.023 32.86 283.694 31.816C283.366 30.7527 282.776 29.902 281.925 29.264C281.075 28.626 279.847 28.307 278.242 28.307C276.85 28.307 275.642 28.626 274.617 29.264C273.612 29.902 272.839 30.7913 272.297 31.932C271.756 33.0727 271.485 34.3873 271.485 35.876L268.991 34.078C268.991 31.41 269.571 29.0707 270.731 27.06C271.891 25.0493 273.457 23.4737 275.429 22.333C277.421 21.1923 279.625 20.622 282.041 20.622C284.574 20.622 286.652 21.1343 288.276 22.159C289.92 23.1643 291.138 24.5757 291.93 26.393C292.742 28.191 293.148 30.2983 293.148 32.715C293.148 33.701 293.148 34.803 293.148 36.021C293.148 37.239 293.148 38.486 293.148 39.762V52H284.187ZM262.495 52V21.202H271.485V52H262.495ZM314.336 52.638C313.157 52.638 311.939 52.5317 310.682 52.319C309.445 52.1257 308.285 51.7293 307.202 51.13C306.139 50.5113 305.279 49.6123 304.621 48.433C303.964 47.2537 303.635 45.6973 303.635 43.764C303.635 43.3387 303.635 42.9037 303.635 42.459C303.635 42.0143 303.635 41.5697 303.635 41.125V28.162H296.53V21.202H298.531C299.691 21.202 300.61 21.1537 301.286 21.057C301.982 20.9603 302.495 20.7187 302.823 20.332C303.171 19.926 303.394 19.2977 303.49 18.447C303.587 17.5963 303.635 16.4267 303.635 14.938V11.052H312.654V21.202H321.615V28.162H312.654V39.24C312.654 39.588 312.654 39.9263 312.654 40.255C312.654 40.5837 312.654 40.9027 312.654 41.212C312.654 42.546 312.809 43.6287 313.118 44.46C313.447 45.2913 314.249 45.707 315.525 45.707C316.163 45.707 316.763 45.649 317.323 45.533C317.903 45.417 318.338 45.301 318.628 45.185V51.942C318.222 52.116 317.652 52.2707 316.917 52.406C316.183 52.5607 315.322 52.638 314.336 52.638ZM332.025 52.87C330.691 52.87 329.56 52.406 328.632 51.478C327.704 50.55 327.24 49.419 327.24 48.085C327.24 46.7703 327.704 45.649 328.632 44.721C329.56 43.793 330.691 43.329 332.025 43.329C333.339 43.329 334.461 43.793 335.389 44.721C336.317 45.649 336.781 46.7703 336.781 48.085C336.781 49.419 336.317 50.55 335.389 51.478C334.461 52.406 333.339 52.87 332.025 52.87Z" fill="#074C83"/>
<path d="M34.168 8.84617C34.168 5.87276 37.784 4.4073 39.8541 6.54178L60.2467 27.5691C61.5029 28.8643 62.2054 30.5978 62.2054 32.4022V56.8328C62.2054 59.8062 58.5894 61.2716 56.5193 59.1371L36.1267 38.1099C34.8705 36.8146 34.168 35.0811 34.168 33.2767V8.84617Z" fill="#0C7FDA"/>
<path d="M16.793 8.16745C16.793 5.19405 20.409 3.72858 22.4791 5.86307L42.5902 26.6001C44.0269 28.0815 44.8304 30.0641 44.8304 32.1278V56.1541C44.8304 59.1275 41.2144 60.5929 39.1443 58.4584L18.7517 37.4312C17.4955 36.1359 16.793 34.4024 16.793 32.598V8.16745Z" fill="#2196F3"/>
<path d="M0 8.84617C0 5.87276 3.61605 4.4073 5.68611 6.54178L26.0787 27.5691C27.3349 28.8643 28.0375 30.5978 28.0375 32.4022V56.8328C28.0375 59.8062 24.4214 61.2716 22.3513 59.1371L1.95872 38.1099C0.702527 36.8146 0 35.0811 0 33.2767V8.84617Z" fill="#6EBBF7"/>
</svg>
