<svg width="168" height="46" viewBox="0 0 168 46" fill="none" xmlns="http://www.w3.org/2000/svg">
<path d="M70.2784 15.68H64.4344L65.9224 13.904V30.5H62.2144V13.904L63.7504 15.68H57.8704V12.8H70.2784V15.68ZM71.1043 30.5V17.756H74.8363V22.148L74.0683 21.668C74.1563 21.068 74.3163 20.516 74.5483 20.012C74.7803 19.508 75.0803 19.072 75.4483 18.704C75.8163 18.328 76.2523 18.036 76.7563 17.828C77.2683 17.62 77.8523 17.516 78.5083 17.516C79.0203 17.516 79.4203 17.556 79.7083 17.636C80.0043 17.708 80.1883 17.764 80.2603 17.804L79.6483 21.14C79.5763 21.1 79.4163 21.036 79.1683 20.948C78.9203 20.86 78.6003 20.816 78.2083 20.816C77.5683 20.816 77.0323 20.924 76.6003 21.14C76.1683 21.356 75.8203 21.644 75.5563 22.004C75.3003 22.356 75.1163 22.748 75.0043 23.18C74.8923 23.612 74.8363 24.048 74.8363 24.488V30.5H71.1043ZM86.229 30.764C85.301 30.764 84.473 30.616 83.745 30.32C83.025 30.024 82.461 29.596 82.053 29.036C81.645 28.476 81.441 27.796 81.441 26.996C81.441 26.092 81.689 25.356 82.185 24.788C82.681 24.22 83.337 23.788 84.153 23.492C84.977 23.188 85.869 22.988 86.829 22.892C88.229 22.756 89.193 22.632 89.721 22.52C90.257 22.408 90.525 22.212 90.525 21.932C90.525 21.924 90.525 21.916 90.525 21.908C90.525 21.436 90.297 21.064 89.841 20.792C89.393 20.52 88.765 20.384 87.957 20.384C87.101 20.384 86.445 20.54 85.989 20.852C85.541 21.156 85.317 21.624 85.317 22.256H81.657C81.657 21.232 81.933 20.368 82.485 19.664C83.045 18.96 83.801 18.428 84.753 18.068C85.705 17.7 86.781 17.516 87.981 17.516C89.101 17.516 90.137 17.688 91.089 18.032C92.041 18.368 92.805 18.876 93.381 19.556C93.965 20.236 94.257 21.1 94.257 22.148C94.257 22.316 94.257 22.484 94.257 22.652C94.257 22.812 94.257 22.976 94.257 23.144V27.656C94.257 27.984 94.265 28.3 94.281 28.604C94.305 28.9 94.353 29.172 94.425 29.42C94.505 29.7 94.605 29.932 94.725 30.116C94.845 30.3 94.945 30.428 95.025 30.5H91.365C91.309 30.444 91.221 30.328 91.101 30.152C90.989 29.976 90.893 29.772 90.813 29.54C90.717 29.26 90.645 28.98 90.597 28.7C90.557 28.412 90.537 28.076 90.537 27.692L91.305 28.22C91.081 28.748 90.717 29.204 90.213 29.588C89.717 29.964 89.125 30.256 88.437 30.464C87.757 30.664 87.021 30.764 86.229 30.764ZM87.225 27.98C87.809 27.98 88.353 27.876 88.857 27.668C89.369 27.452 89.785 27.116 90.105 26.66C90.425 26.204 90.585 25.608 90.585 24.872V23.588L91.509 24.488C90.981 24.68 90.369 24.84 89.673 24.968C88.985 25.088 88.297 25.184 87.609 25.256C86.793 25.336 86.181 25.476 85.773 25.676C85.373 25.868 85.173 26.196 85.173 26.66C85.173 27.1 85.345 27.432 85.689 27.656C86.033 27.872 86.545 27.98 87.225 27.98ZM102.307 30.788C101.243 30.788 100.263 30.536 99.3673 30.032C98.4713 29.52 97.7513 28.764 97.2073 27.764C96.6633 26.764 96.3913 25.532 96.3913 24.068C96.3913 22.668 96.6673 21.48 97.2193 20.504C97.7793 19.528 98.5073 18.788 99.4033 18.284C100.307 17.772 101.275 17.516 102.307 17.516C103.315 17.516 104.235 17.772 105.067 18.284C105.907 18.796 106.579 19.496 107.083 20.384C107.587 21.264 107.839 22.28 107.839 23.432C107.839 23.472 107.839 23.512 107.839 23.552C107.839 23.584 107.839 23.62 107.839 23.66L106.231 23.684C106.231 23.66 106.231 23.636 106.231 23.612C106.231 23.58 106.231 23.552 106.231 23.528C106.231 22.928 106.087 22.412 105.799 21.98C105.511 21.548 105.139 21.216 104.683 20.984C104.227 20.744 103.751 20.624 103.255 20.624C102.431 20.624 101.719 20.9 101.119 21.452C100.519 21.996 100.219 22.868 100.219 24.068C100.219 25.268 100.519 26.152 101.119 26.72C101.727 27.28 102.439 27.56 103.255 27.56C103.767 27.56 104.251 27.44 104.707 27.2C105.163 26.952 105.531 26.604 105.811 26.156C106.091 25.708 106.231 25.18 106.231 24.572L107.839 24.656C107.839 25.8 107.591 26.836 107.095 27.764C106.607 28.684 105.943 29.42 105.103 29.972C104.271 30.516 103.339 30.788 102.307 30.788ZM106.231 30.5V11.744H109.963V30.5H106.231ZM112.656 30.5V17.756H116.34V30.5H112.656ZM114.492 15.68C113.916 15.68 113.412 15.528 112.98 15.224C112.556 14.92 112.344 14.492 112.344 13.94C112.344 13.38 112.556 12.948 112.98 12.644C113.412 12.34 113.916 12.188 114.492 12.188C115.076 12.188 115.58 12.34 116.004 12.644C116.436 12.948 116.652 13.38 116.652 13.94C116.652 14.5 116.436 14.932 116.004 15.236C115.58 15.532 115.076 15.68 114.492 15.68ZM123.401 30.764C122.473 30.764 121.645 30.616 120.917 30.32C120.197 30.024 119.633 29.596 119.225 29.036C118.817 28.476 118.613 27.796 118.613 26.996C118.613 26.092 118.861 25.356 119.357 24.788C119.853 24.22 120.509 23.788 121.325 23.492C122.149 23.188 123.041 22.988 124.001 22.892C125.401 22.756 126.365 22.632 126.893 22.52C127.429 22.408 127.697 22.212 127.697 21.932C127.697 21.924 127.697 21.916 127.697 21.908C127.697 21.436 127.469 21.064 127.013 20.792C126.565 20.52 125.937 20.384 125.129 20.384C124.273 20.384 123.617 20.54 123.161 20.852C122.713 21.156 122.489 21.624 122.489 22.256H118.829C118.829 21.232 119.105 20.368 119.657 19.664C120.217 18.96 120.973 18.428 121.925 18.068C122.877 17.7 123.953 17.516 125.153 17.516C126.273 17.516 127.309 17.688 128.261 18.032C129.213 18.368 129.977 18.876 130.553 19.556C131.137 20.236 131.429 21.1 131.429 22.148C131.429 22.316 131.429 22.484 131.429 22.652C131.429 22.812 131.429 22.976 131.429 23.144V27.656C131.429 27.984 131.437 28.3 131.453 28.604C131.477 28.9 131.525 29.172 131.597 29.42C131.677 29.7 131.777 29.932 131.897 30.116C132.017 30.3 132.117 30.428 132.197 30.5H128.537C128.481 30.444 128.393 30.328 128.273 30.152C128.161 29.976 128.065 29.772 127.985 29.54C127.889 29.26 127.817 28.98 127.769 28.7C127.729 28.412 127.709 28.076 127.709 27.692L128.477 28.22C128.253 28.748 127.889 29.204 127.385 29.588C126.889 29.964 126.297 30.256 125.609 30.464C124.929 30.664 124.193 30.764 123.401 30.764ZM124.397 27.98C124.981 27.98 125.525 27.876 126.029 27.668C126.541 27.452 126.957 27.116 127.277 26.66C127.597 26.204 127.757 25.608 127.757 24.872V23.588L128.681 24.488C128.153 24.68 127.541 24.84 126.845 24.968C126.157 25.088 125.469 25.184 124.781 25.256C123.965 25.336 123.353 25.476 122.945 25.676C122.545 25.868 122.345 26.196 122.345 26.66C122.345 27.1 122.517 27.432 122.861 27.656C123.205 27.872 123.717 27.98 124.397 27.98ZM143.127 30.5V25.088C143.127 24.784 143.127 24.508 143.127 24.26C143.127 24.012 143.127 23.788 143.127 23.588C143.127 23.06 143.059 22.58 142.923 22.148C142.787 21.708 142.543 21.356 142.191 21.092C141.839 20.828 141.331 20.696 140.667 20.696C140.091 20.696 139.591 20.828 139.167 21.092C138.751 21.356 138.431 21.724 138.207 22.196C137.983 22.668 137.871 23.212 137.871 23.828L136.839 23.084C136.839 21.98 137.079 21.012 137.559 20.18C138.039 19.348 138.687 18.696 139.503 18.224C140.327 17.752 141.239 17.516 142.239 17.516C143.287 17.516 144.147 17.728 144.819 18.152C145.499 18.568 146.003 19.152 146.331 19.904C146.667 20.648 146.835 21.52 146.835 22.52C146.835 22.928 146.835 23.384 146.835 23.888C146.835 24.392 146.835 24.908 146.835 25.436V30.5H143.127ZM134.151 30.5V17.756H137.871V30.5H134.151ZM155.603 30.764C155.115 30.764 154.611 30.72 154.091 30.632C153.579 30.552 153.099 30.388 152.651 30.14C152.211 29.884 151.855 29.512 151.583 29.024C151.311 28.536 151.175 27.892 151.175 27.092C151.175 26.916 151.175 26.736 151.175 26.552C151.175 26.368 151.175 26.184 151.175 26V20.636H148.235V17.756H149.063C149.543 17.756 149.923 17.736 150.203 17.696C150.491 17.656 150.703 17.556 150.839 17.396C150.983 17.228 151.075 16.968 151.115 16.616C151.155 16.264 151.175 15.78 151.175 15.164V13.556H154.907V17.756H158.615V20.636H154.907V25.22C154.907 25.364 154.907 25.504 154.907 25.64C154.907 25.776 154.907 25.908 154.907 26.036C154.907 26.588 154.971 27.036 155.099 27.38C155.235 27.724 155.567 27.896 156.095 27.896C156.359 27.896 156.607 27.872 156.839 27.824C157.079 27.776 157.259 27.728 157.379 27.68V30.476C157.211 30.548 156.975 30.612 156.671 30.668C156.367 30.732 156.011 30.764 155.603 30.764ZM162.922 30.86C162.37 30.86 161.902 30.668 161.518 30.284C161.134 29.9 160.942 29.432 160.942 28.88C160.942 28.336 161.134 27.872 161.518 27.488C161.902 27.104 162.37 26.912 162.922 26.912C163.466 26.912 163.93 27.104 164.314 27.488C164.698 27.872 164.89 28.336 164.89 28.88C164.89 29.432 164.698 29.9 164.314 30.284C163.93 30.668 163.466 30.86 162.922 30.86Z" fill="#074C83"/>
<path d="M23.6562 9.13714C23.6562 6.16373 27.2723 4.69827 29.3424 6.83275L41.1081 18.9647C42.3643 20.26 43.0668 21.9935 43.0668 23.7978V37.3326C43.0668 40.306 39.4508 41.7715 37.3807 39.637L25.615 27.5051C24.3588 26.2098 23.6562 24.4763 23.6562 22.6719V9.13714Z" fill="#0C7FDA"/>
<path d="M11.625 8.66742C11.625 5.69401 15.241 4.22855 17.3111 6.36303L28.7954 18.2047C30.2321 19.6861 31.0356 21.6687 31.0356 23.7324V36.8629C31.0356 39.8363 27.4195 41.3017 25.3495 39.1672L13.5837 27.0353C12.3275 25.74 11.625 24.0065 11.625 22.2021V8.66742Z" fill="#2196F3"/>
<path d="M0 9.13707C0 6.16366 3.61605 4.6982 5.68611 6.83268L17.4518 18.9646C18.708 20.2599 19.4106 21.9934 19.4106 23.7978V37.3325C19.4106 40.3059 15.7945 41.7714 13.7245 39.6369L1.95873 27.505C0.702531 26.2097 0 24.4762 0 22.6718V9.13707Z" fill="#6EBBF7"/>
</svg>
